<?xml version="1.0" encoding="iso-8859-1"?>
<!-- Uploaded to: SVG Repo, www.svgrepo.com, Generator: SVG Repo Mixer Tools -->
<svg height="800px" width="800px" version="1.1" id="Layer_1" xmlns="http://www.w3.org/2000/svg" xmlns:xlink="http://www.w3.org/1999/xlink" 
	 viewBox="0 0 512 512" xml:space="preserve">
<path style="fill:#C69F75;" d="M311.652,44.522H200.348c-6.147,0-11.13-4.983-11.13-11.13V11.13c0-6.147,4.983-11.13,11.13-11.13
	h111.304c6.147,0,11.13,4.983,11.13,11.13v22.261C322.783,39.539,317.799,44.522,311.652,44.522z"/>
<path style="fill:#EFDDAB;" d="M456.348,144.696v291.301c0,5.904-2.345,11.566-6.52,15.741l-53.742,53.742
	c-4.175,4.175-9.837,6.52-15.741,6.52h-248.69c-5.904,0-11.566-2.345-15.741-6.52l-53.743-53.742
	c-4.174-4.175-6.519-9.837-6.519-15.741V144.696c0-12.295,9.966-22.261,22.261-22.261h77.913V26.871c0-2.952,1.173-5.783,3.26-7.87
	L174.827,3.26c2.087-2.087,4.919-3.26,7.87-3.26h6.52v122.435h122.435V0h17.651c2.952,0,5.783,1.173,7.87,3.26l15.741,15.741
	c2.087,2.087,3.26,4.919,3.26,7.87v95.564h77.913C446.382,122.435,456.348,132.401,456.348,144.696z"/>
<path style="fill:#DBCBA1;" d="M256,512H131.655c-5.904,0-11.566-2.345-15.741-6.52l-53.743-53.742
	c-4.174-4.175-6.519-9.837-6.519-15.741V144.696c0-12.295,9.966-22.261,22.261-22.261h77.913V26.871c0-2.952,1.173-5.783,3.26-7.87
	L174.827,3.26c2.087-2.087,4.919-3.26,7.87-3.26h17.651v122.435H256V512z"/>
<path style="fill:#6BAF6E;" d="M264.348,311.652v77.913c0,4.61-3.738,8.348-8.348,8.348s-8.348-3.738-8.348-8.348v-77.913
	c0-4.61,3.738-8.348,8.348-8.348S264.348,307.042,264.348,311.652z"/>
<path style="fill:#91F18B;" d="M256,317.217v-16.696c0-36.883,29.9-66.783,66.783-66.783h22.261V256
	c0,36.883-29.9,66.783-66.783,66.783h-16.696C258.492,322.783,256,320.29,256,317.217z"/>
<path style="fill:#6BAF6E;" d="M256,322.783h-22.261c-36.883,0-66.783-29.9-66.783-66.783v-22.261h22.261
	c36.883,0,66.783,29.9,66.783,66.783V322.783z"/>
</svg>